<?xml version="1.0" standalone="no"?>
<!DOCTYPE svg PUBLIC "-//W3C//DTD SVG 1.1//EN" "http://www.w3.org/Graphics/SVG/1.1/DTD/svg11.dtd" >
<svg xmlns="http://www.w3.org/2000/svg">
<metadata></metadata>
<defs>
<font id="pragmaticalightcregular" horiz-adv-x="1159" >
<font-face units-per-em="2048" ascent="1589" descent="-459" />
<missing-glyph horiz-adv-x="477" />
<glyph horiz-adv-x="2048" />
<glyph horiz-adv-x="2048" />
<glyph unicode="&#xd;" horiz-adv-x="2048" />
<glyph unicode=" "  horiz-adv-x="477" />
<glyph unicode="&#x09;" horiz-adv-x="477" />
<glyph unicode="&#xa0;" horiz-adv-x="477" />
<glyph unicode="!" horiz-adv-x="563" d="M225 0v152h113v-152h-113zM227 805v629h109v-629l-25 -445h-59z" />
<glyph unicode="&#x22;" horiz-adv-x="634" d="M102 1434h164l-51 -394h-61zM369 1434h163l-51 -394h-61z" />
<glyph unicode="#" horiz-adv-x="1284" d="M102 436l17 103h274l58 366h-275l17 103h274l47 311h74l-47 -311h293l47 311h73l-47 -311h275l-17 -103h-274l-57 -366h274l-16 -103h-275l-47 -313h-74l47 313h-292l-48 -313h-73l47 313h-275zM467 539h293l57 366h-293z" />
<glyph unicode="$" d="M109 449h102q0 -83 21 -150.5t55 -111.5t80.5 -74.5t94 -44.5t97.5 -17v660q-85 27 -141 49t-109 54.5t-82.5 71.5t-47 94.5t-17.5 127.5q0 76 23.5 139t62 104.5t90.5 70t107 42t114 15.5v112h72v-112q89 -2 161 -32t118 -79.5t72 -111t30 -130.5h-99q-2 45 -17.5 86.5 t-46.5 81t-87 66.5t-131 33v-609q111 -30 186 -64t129.5 -83.5t79.5 -116.5t25 -158q0 -97 -29.5 -171.5t-73.5 -116.5t-103.5 -68t-110.5 -34t-103 -7v-155h-72v155q-96 2 -174 32t-128.5 78t-85 111.5t-49 129t-13.5 133.5zM260 1102q0 -110 63.5 -180t235.5 -117v588 q-41 -3 -78 -11t-79 -28t-72 -50.5t-50 -82.5t-20 -119zM631 51q43 1 81.5 8.5t83.5 28t77 52.5t53.5 87.5t21.5 128.5q0 43 -7 79.5t-27.5 78t-54 74t-92 60.5t-136.5 44v-641z" />
<glyph unicode="%" horiz-adv-x="1781" d="M109 1040q0 94 23 168t58 118.5t80.5 73.5t86 39.5t79.5 10.5t79.5 -10.5t86 -39.5t81 -73.5t58.5 -118.5t23 -168t-23 -168t-58.5 -118t-81 -73t-86 -39.5t-79.5 -10.5t-79.5 10.5t-86 39.5t-80.5 73t-58 118t-23 168zM203 1040q0 -64 13 -122t40 -107.5t73.5 -79 t106.5 -29.5q80 0 134.5 52t77 125.5t22.5 160.5t-22.5 160.5t-77 125.5t-134.5 52q-60 0 -106.5 -29.5t-73.5 -79t-40 -107.5t-13 -122zM338 0l1022 1434h84l-1022 -1434h-84zM1018 393q0 94 23 168t58.5 118.5t81 73.5t86 39.5t79.5 10.5t79.5 -10.5t86 -39.5t80.5 -73.5 t58 -118.5t23 -168t-23 -168t-58 -118t-80.5 -73t-86 -39.5t-79.5 -10.5t-79.5 10.5t-86 39.5t-81 73t-58.5 118t-23 168zM1112 393q0 -87 22.5 -160.5t77 -125.5t134.5 -52q60 0 106.5 29.5t73.5 79t40 107.5t13 122t-13 122t-40 107.5t-73.5 79t-106.5 29.5 q-80 0 -134.5 -52t-77 -125.5t-22.5 -160.5z" />
<glyph unicode="&#x26;" horiz-adv-x="1294" d="M82 373q0 88 26 159t78 124.5t115 93t150 75.5q-7 9 -20 26q-40 52 -58.5 78t-41 65.5t-30.5 76.5t-8 82q0 114 76.5 197.5t216.5 83.5q121 0 199.5 -72.5t78.5 -196.5q0 -232 -280 -358l391 -465q54 126 59 262h92q-19 -198 -92 -332l234 -272h-123l-164 193 q-157 -236 -457 -236q-111 0 -197.5 33.5t-138.5 92t-79 132t-27 158.5zM184 365q0 -139 94.5 -230.5t245.5 -91.5q266 0 402 213l-422 508q-76 -35 -129.5 -70t-99 -82.5t-68.5 -109t-23 -137.5zM391 1153q0 -62 32.5 -125t111.5 -158q38 15 74.5 38t74 58.5t60 86.5 t22.5 110q0 74 -48.5 129.5t-133.5 55.5q-86 0 -139.5 -53.5t-53.5 -141.5z" />
<glyph unicode="'" horiz-adv-x="368" d="M102 1434h164l-51 -394h-61z" />
<glyph unicode="(" horiz-adv-x="681" d="M145 528q0 245 76.5 454t227.5 452h63q-264 -458 -264 -906q0 -447 264 -905h-63q-151 243 -227.5 451.5t-76.5 453.5z" />
<glyph unicode=")" horiz-adv-x="681" d="M170 -377q264 458 264 905q0 448 -264 906h63q151 -243 227.5 -452t76.5 -454t-76.5 -453.5t-227.5 -451.5h-63z" />
<glyph unicode="*" horiz-adv-x="995" d="M162 1163l22 66l281 -88v293h67v-293l279 88l23 -66l-277 -88l172 -239l-57 -41l-174 239l-174 -239l-58 41l172 239z" />
<glyph unicode="+" horiz-adv-x="1228" d="M102 696v62h482v481h61v-481h481v-62h-481v-481h-61v481h-482z" />
<glyph unicode="," horiz-adv-x="563" d="M225 0v152h113v-232q0 -33 -3.5 -58.5t-14.5 -55t-35 -51t-60 -31.5v73q56 19 56 123v80h-56z" />
<glyph unicode="-" horiz-adv-x="827" d="M143 471v143h541v-143h-541z" />
<glyph unicode="." horiz-adv-x="563" d="M225 0v152h113v-152h-113z" />
<glyph unicode="/" horiz-adv-x="806" d="M0 -379l731 1813h76l-731 -1813h-76z" />
<glyph unicode="0" d="M92 717q0 119 14 220t36.5 173.5t55 131t66 96t74 65t73 41.5t69.5 22t57.5 9.5t42.5 1.5q30 0 58 -3t80 -19.5t95 -44.5t92 -85t83 -134.5t56.5 -200t22.5 -273.5t-22.5 -273.5t-56.5 -200t-83 -134.5t-92 -85t-95 -44.5t-80 -19.5t-58 -3q-22 0 -42.5 1.5t-57.5 9.5 t-69.5 22t-73 41.5t-74 65t-66 96t-55 131t-36.5 173.5t-14 220zM195 717q0 -202 44.5 -353.5t132 -236t208.5 -84.5t208.5 84.5t132 236t44.5 353.5t-44.5 353.5t-132 236t-208.5 84.5t-208.5 -84.5t-132 -236t-44.5 -353.5z" />
<glyph unicode="1" d="M328 1122v56h34q75 0 133.5 18.5t92.5 45.5t57.5 63.5t32 66.5t12.5 62h60v-1434h-103v1122h-319z" />
<glyph unicode="2" d="M152 0q-1 99 18.5 177.5t63.5 143t100.5 116.5t142.5 110q23 16 50.5 33.5t61 38t52.5 32.5q40 25 65.5 42.5t62.5 47t61 59.5t47.5 69t35 86.5t11.5 101.5q0 138 -87.5 236t-244.5 98q-42 0 -83.5 -9t-87 -33.5t-80 -62.5t-57 -102.5t-22.5 -147.5v-32h-102v32 q0 93 25.5 169t68 125.5t99.5 83.5t118 48.5t127 14.5q192 0 310 -111.5t118 -304.5q0 -76 -19.5 -141t-47 -109.5t-75.5 -89t-84.5 -70t-94.5 -61.5q-18 -11 -56 -33.5t-60 -36t-58.5 -38t-60 -42t-54.5 -44.5t-51 -50.5t-42 -55t-34.5 -62t-21 -67t-9.5 -75.5h778v-86 h-884z" />
<glyph unicode="3" d="M104 401h99q2 -45 12 -89.5t35 -94.5t63 -87.5t102 -62t146 -24.5q89 0 157.5 25.5t106 63.5t61.5 89.5t31 94t7 87.5q0 44 -8 83.5t-31 82.5t-60 73.5t-101.5 50.5t-148.5 20h-98v86h60q17 0 30 0.5t43.5 3.5t55 11.5t56.5 21.5t56 35.5t45.5 52t33 73.5t11.5 97 q0 133 -87.5 215t-231.5 82q-80 0 -140.5 -25.5t-94 -63t-54 -90t-26.5 -98t-5 -94.5h-98q-1 61 9 120t38.5 121.5t74 109t122.5 76.5t176 30q107 0 189.5 -33t130.5 -89t72 -122.5t24 -140.5q0 -60 -16.5 -112t-40.5 -85.5t-56.5 -61.5t-57.5 -42t-51 -25v-4 q53 -8 102 -33.5t89.5 -69t65 -111t24.5 -149.5q0 -202 -124.5 -322t-344.5 -120q-95 0 -172.5 26.5t-128 69.5t-85 101.5t-50 119.5t-17.5 127z" />
<glyph unicode="4" d="M86 356v86l647 992h107v-992h233v-86h-233v-356h-99v356h-655zM193 442h548v850z" />
<glyph unicode="5" horiz-adv-x="1105" d="M109 338h102q5 -55 29 -106t64 -94t103 -69t140 -26q160 0 267.5 104t107.5 297q0 167 -93 273t-260 106q-195 0 -321 -135h-92l106 746h686v-86h-604l-82 -551q59 56 145 84t171 28q201 0 323.5 -121.5t122.5 -338.5q0 -228 -131.5 -360t-347.5 -132q-105 0 -188 33 t-134 89t-79.5 121.5t-34.5 137.5z" />
<glyph unicode="6" d="M121 670q0 179 25.5 318t69.5 230t108 150t137 84t160 25q44 0 85.5 -7t93.5 -29t92.5 -58t75.5 -100.5t50 -149.5h-98q-16 111 -94.5 184.5t-209.5 73.5q-94 0 -165 -39t-115 -104t-71.5 -160.5t-37 -198t-8.5 -227.5h4q32 113 138.5 178t248.5 65q105 0 188.5 -36 t135.5 -99.5t79 -146t27 -179.5q0 -121 -36 -216.5t-98 -153t-139 -87.5t-163 -30q-483 0 -483 713zM254 436q0 -98 29.5 -175.5t79.5 -123.5t111.5 -70t129.5 -24q152 0 243 112t91 294q0 95 -28.5 168t-77 116t-107.5 64.5t-125 21.5q-67 0 -127.5 -23t-110 -68 t-79 -120.5t-29.5 -171.5z" />
<glyph unicode="7" d="M104 1343v91h951v-66q-236 -287 -389 -684q-59 -153 -104.5 -334.5t-63.5 -349.5h-111q36 336 178 696q67 171 164 340.5t207 306.5h-832z" />
<glyph unicode="8" d="M115 395q0 160 86 263t211 128q-110 32 -174 118t-64 200q0 165 112.5 269t293.5 104t293 -104t112 -269q0 -114 -63.5 -200t-173.5 -118q124 -25 210 -128t86 -263q0 -92 -29.5 -171t-86 -139t-146 -94t-202.5 -34q-150 0 -257 60t-157.5 157t-50.5 221zM217 395 q0 -160 100.5 -256t262.5 -96t262 96t100 256q0 153 -92 248.5t-270 95.5t-270.5 -95.5t-92.5 -248.5zM274 1106q0 -125 85 -203t221 -78t220.5 78t84.5 203q0 118 -80 201.5t-225 83.5t-225.5 -83.5t-80.5 -201.5z" />
<glyph unicode="9" d="M119 989q0 121 36 216.5t98 153.5t139 88t163 30q483 0 483 -713q0 -179 -25 -318t-69 -230t-108 -150t-137 -84t-160 -25q-44 0 -85.5 7t-93.5 29t-93 58t-76 100.5t-50 149.5h99q16 -111 94 -184.5t209 -73.5q94 0 165 39t115 104t71.5 160.5t37 198t8.5 227.5h-4 q-32 -113 -138.5 -178.5t-248.5 -65.5q-105 0 -188.5 36t-135.5 99.5t-79 146t-27 179.5zM221 985q0 -95 28.5 -168t77 -116.5t107.5 -65t125 -21.5q67 0 127.5 23t110 68t79 120.5t29.5 171.5q0 98 -29.5 175.5t-79.5 124t-111.5 70.5t-129.5 24q-152 0 -243 -112t-91 -294 z" />
<glyph unicode=":" horiz-adv-x="563" d="M225 0v152h113v-152h-113zM225 889v151h113v-151h-113z" />
<glyph unicode=";" horiz-adv-x="563" d="M225 0v152h113v-232q0 -33 -3.5 -58.5t-14.5 -55t-35 -51t-60 -31.5v73q56 19 56 123v80h-56zM225 889v151h113v-151h-113z" />
<glyph unicode="&#x3c;" horiz-adv-x="1343" d="M123 670v61l1014 602l32 -61l-964 -572l966 -571l-34 -61z" />
<glyph unicode="=" horiz-adv-x="1228" d="M102 471v61h1024v-61h-1024zM102 881v61h1024v-61h-1024z" />
<glyph unicode="&#x3e;" horiz-adv-x="1343" d="M172 1272l35 61l1014 -602v-61l-1014 -602l-33 61l965 571z" />
<glyph unicode="?" horiz-adv-x="1101" d="M135 1016q-2 63 6 121t35.5 122t72.5 110.5t125 77t185 30.5q95 0 169 -24t118 -61t72 -88t38.5 -98.5t10.5 -97.5q0 -52 -13.5 -100t-29 -79.5t-52 -74t-55.5 -61.5t-68 -63q-11 -10 -16 -15q-49 -44 -76 -76t-48 -89t-21 -130v-37h-80q-2 12 -2 37q0 84 21.5 149 t50.5 103t79 86q94 88 121 122q86 102 86 224q0 75 -27 132.5t-72 90t-97 48.5t-109 16q-59 0 -107.5 -13.5t-80.5 -35.5t-58 -51.5t-38.5 -61.5t-22.5 -64.5t-11 -61t-3.5 -51.5t0.5 -36h-103zM492 0v152h112v-152h-112z" />
<glyph unicode="@" horiz-adv-x="1761" d="M123 719q0 220 102 394.5t275 269t383 94.5q150 0 275.5 -38.5t213 -105.5t148.5 -158.5t89.5 -196t28.5 -218.5q0 -94 -21 -172.5t-55.5 -130.5t-80 -88t-93.5 -52t-96 -16q-62 0 -109 35t-53 104q-22 -50 -67.5 -85t-97 -50.5t-105.5 -15.5q-169 0 -272 112.5 t-103 290.5q0 82 22 150.5t59 114.5t86.5 78t103 46.5t110.5 14.5q87 0 161.5 -38t98.5 -116h4v125h91v-557q0 -81 29.5 -109t76.5 -28q58 0 103.5 36t72 94t40 124t13.5 133q0 154 -53 279.5t-144.5 207t-213.5 125t-262 43.5q-124 0 -233 -37.5t-189.5 -104t-138.5 -154 t-87.5 -190t-29.5 -210.5q0 -141 40 -259.5t106.5 -198.5t155 -136t183.5 -81.5t193 -25.5q176 0 342 97l39 -56q-92 -55 -182 -78.5t-199 -23.5q-159 0 -296.5 50.5t-241 144.5t-163 240t-59.5 327zM600 690q0 -39 5 -77t21.5 -85.5t43.5 -83t76 -60t114 -24.5q35 0 67.5 7 t71 28.5t66.5 56t46.5 96t18.5 142.5q0 68 -14 125.5t-43.5 105.5t-83.5 75.5t-127 27.5q-128 0 -195 -91t-67 -243z" />
<glyph unicode="A" horiz-adv-x="1228" d="M6 0l547 1434h123l547 -1434h-109l-176 465h-647l-176 -465h-109zM322 551h585l-293 801z" />
<glyph unicode="B" horiz-adv-x="1380" d="M188 0v1434h564q99 0 174.5 -22t120.5 -56t73.5 -82.5t38.5 -96t10 -100.5q0 -73 -21.5 -131t-58.5 -95t-77 -59.5t-84 -33.5v-4q132 -14 218.5 -111t86.5 -246q0 -51 -9.5 -97t-31 -92t-59.5 -82.5t-91.5 -65.5t-131 -44.5t-173.5 -15.5h-549zM287 86h452q391 0 391 311 q0 87 -28.5 147.5t-83.5 94.5t-124.5 48.5t-162.5 14.5h-444v-616zM287 788h442q82 0 144.5 18.5t99 47t59.5 69t31 79t8 81.5q0 53 -15 96t-37.5 70t-55 47t-60.5 29.5t-62.5 15t-52 6.5t-36.5 1h-465v-560z" />
<glyph unicode="C" horiz-adv-x="1468" d="M135 692q0 177 40.5 320.5t120 247.5t203.5 160.5t285 56.5q125 0 224.5 -30t160.5 -76.5t102.5 -109.5t58.5 -121.5t20 -119.5h-103q-4 73 -33.5 138t-84.5 118t-144 84t-201 31q-261 0 -403.5 -185.5t-142.5 -509.5q0 -193 63.5 -340t187 -230t291.5 -83q96 0 176.5 26 t133.5 67t91.5 96.5t57.5 110.5t25 112h102q-7 -64 -27 -127t-64.5 -132t-107.5 -120.5t-164 -85t-225 -33.5q-123 0 -224 34.5t-166 87t-114.5 126t-75 141t-41 142.5t-19 120t-3.5 84z" />
<glyph unicode="D" horiz-adv-x="1435" d="M188 0v1434h469q33 0 57 -1t78 -7.5t96 -18t100 -36.5t102 -59t91 -89.5t77 -124t49.5 -165.5t19.5 -212q0 -128 -21.5 -232.5t-58.5 -178.5t-93.5 -129.5t-119.5 -89.5t-144 -55t-159.5 -28.5t-173.5 -7.5h-369zM287 86h303q51 0 92 2t95 9.5t96.5 20.5t90.5 37t84 56 t71 80t57 108t35.5 141t13.5 177q0 116 -21.5 211.5t-56.5 159.5t-84.5 112.5t-99 76t-107 44.5t-102 22t-90.5 5h-377v-1262z" />
<glyph unicode="E" horiz-adv-x="1212" d="M188 0v1434h951v-86h-852v-560h784v-86h-784v-616h876v-86h-975z" />
<glyph unicode="F" horiz-adv-x="1120" d="M188 0v1434h891v-86h-792v-568h706v-86h-706v-694h-99z" />
<glyph unicode="G" horiz-adv-x="1505" d="M109 721q0 175 40.5 314t122.5 240.5t213.5 155.5t305.5 54q100 0 183 -20.5t140.5 -56.5t100.5 -80t69 -96.5t40 -100t19 -95.5h-102q-8 72 -38.5 135.5t-83.5 115.5t-137.5 82t-190.5 30q-139 0 -245 -43t-168 -109.5t-101 -159t-52.5 -178.5t-13.5 -182q0 -51 5 -104 t20 -122t39.5 -130.5t67 -122.5t97.5 -105t136.5 -71t179.5 -27q89 0 164 22t127 58.5t93 86.5t65.5 103t40.5 112t22 108.5t6 97.5h-492v86h588v-719h-98v281h-4q-28 -65 -72 -120.5t-107 -102t-151.5 -73t-192.5 -26.5q-295 0 -465.5 206.5t-170.5 555.5z" />
<glyph unicode="H" horiz-adv-x="1409" d="M188 0v1434h99v-631h835v631h99v-1434h-99v717h-835v-717h-99z" />
<glyph unicode="I" horiz-adv-x="475" d="M188 0v1434h99v-1434h-99z" />
<glyph unicode="J" horiz-adv-x="1009" d="M61 379v65h99v-59q1 -23 3 -45.5t9.5 -58t19.5 -65.5t35.5 -63t54 -55.5t77.5 -37.5t104 -15q34 0 61.5 3.5t58.5 15t54 31t45.5 52.5t36.5 77.5t22.5 109.5t8.5 145v955h98v-955q0 -49 -2 -88t-10.5 -96t-23.5 -99.5t-44.5 -89.5t-69 -77t-101 -50t-138.5 -20 q-93 0 -165.5 27t-115 69.5t-70 100t-37.5 111.5t-10 112z" />
<glyph unicode="K" horiz-adv-x="1280" d="M188 0v1434h99v-799l819 799h131l-600 -584l643 -850h-127l-588 784l-278 -272v-512h-99z" />
<glyph unicode="L" horiz-adv-x="1056" d="M188 0v1434h99v-1348h770v-86h-869z" />
<glyph unicode="M" horiz-adv-x="1728" d="M188 0v1434h150l526 -1305l527 1305h149v-1434h-98v1243l4 55h-4l-529 -1298h-98l-528 1298h-4l4 -55v-1243h-99z" />
<glyph unicode="N" horiz-adv-x="1458" d="M188 0v1434h123l860 -1297v1297h99v-1434h-121l-862 1296v-1296h-99z" />
<glyph unicode="O" horiz-adv-x="1593" d="M135 717q0 356 174 558t488 202q313 0 487 -202.5t174 -557.5t-174 -557.5t-487 -202.5q-314 0 -488 202t-174 558zM238 717q0 -122 21.5 -224t60.5 -174.5t90.5 -126.5t115 -86t131 -47.5t140.5 -15.5t140.5 15.5t131 47.5t115 86t90.5 126.5t60.5 174.5t21.5 224 t-21.5 224t-60.5 174.5t-90.5 126.5t-115 86t-131 47.5t-140.5 15.5t-140.5 -15.5t-131 -47.5t-115 -86t-90.5 -126.5t-60.5 -174.5t-21.5 -224z" />
<glyph unicode="P" horiz-adv-x="1257" d="M188 0v1434h525q463 0 463 -390q0 -66 -14 -122t-35.5 -95.5t-54.5 -71.5t-64.5 -52t-73.5 -34.5t-73 -21.5t-70 -11t-58 -4.5t-45 -0.5h-401v-631h-99zM287 717h401q385 0 385 325q0 306 -385 306h-401v-631z" />
<glyph unicode="Q" horiz-adv-x="1593" d="M135 717q0 356 174 558t488 202q313 0 487 -202.5t174 -557.5q0 -397 -223 -606l192 -170l-57 -64l-203 178q-152 -98 -370 -98q-313 0 -487.5 202.5t-174.5 557.5zM238 717q0 -122 21.5 -224t60.5 -174.5t90.5 -126.5t115 -86t131 -47.5t140.5 -15.5q179 0 297 78 l-164 143l57 64l176 -156q104 104 148.5 239t44.5 306q0 122 -21.5 224t-60.5 174.5t-90.5 126.5t-115 86t-131 47.5t-140.5 15.5t-140.5 -15.5t-131 -47.5t-115 -86t-90.5 -126.5t-60.5 -174.5t-21.5 -224z" />
<glyph unicode="R" horiz-adv-x="1378" d="M188 0v1434h572q43 0 78 -2t86 -10t90.5 -22.5t82.5 -42t71 -65t46.5 -94.5t18.5 -129q0 -137 -67.5 -234t-186.5 -128v-5q39 -10 69.5 -27t51 -35.5t35.5 -46t23 -49t13.5 -54t7 -53t3.5 -52.5q2 -42 5 -105.5t4.5 -86t5.5 -58.5t9 -53t14 -38.5t23 -43.5h-113 q-11 21 -18 42t-11 37.5t-7.5 52t-4.5 58t-4.5 86t-5.5 107.5q-2 36 -4.5 57.5t-9.5 54.5t-18.5 53.5t-32.5 44.5t-50 37.5t-72.5 22.5t-98.5 9h-506v-662h-99zM287 748h514q39 0 77.5 6t86 27t82.5 54t59 92.5t24 137.5q0 57 -15 102.5t-37 74.5t-57 50t-65 31.5 t-71.5 16.5t-66 7t-58.5 1h-473v-600z" />
<glyph unicode="S" horiz-adv-x="1298" d="M109 449h102v-8q1 -51 13 -101q14 -54 47 -107t83.5 -92t132 -63.5t183.5 -24.5q79 0 143.5 14t107 35.5t74.5 52t49 60t27 63.5t13 57.5t3 47.5q0 60 -22.5 108t-54.5 78t-82.5 54t-90 35.5t-94.5 23.5q-30 6 -91 18.5t-91 18.5q-51 11 -80.5 17.5t-80.5 22.5t-82.5 32 t-70 44t-60 60.5t-37 79t-15.5 102.5t13 108.5t49 107.5t92 95.5t149 66.5t213 26q107 0 193 -26.5t140 -67.5t91 -96.5t53 -108.5t21 -109h-102q-3 36 -12 71t-36.5 83t-68.5 83t-115 60t-170 25q-190 0 -298.5 -85t-108.5 -223q0 -34 6.5 -63.5t16.5 -52.5t29.5 -42.5 t37.5 -33.5t49 -27.5t55.5 -22t65.5 -18t71.5 -15.5t79.5 -15q158 -28 217 -45q295 -87 321 -322q3 -23 3 -49q0 -45 -7.5 -86.5t-26.5 -91t-57.5 -90t-93.5 -74.5t-141.5 -53t-195.5 -19q-108 0 -196 21t-148 58t-103.5 83.5t-66.5 102.5q-24 54 -35 108q-10 49 -10 100v9z " />
<glyph unicode="T" horiz-adv-x="1097" d="M12 1348v86h1073v-86h-487v-1348h-98v1348h-488z" />
<glyph unicode="U" horiz-adv-x="1384" d="M162 561v873h98v-871q0 -70 6 -126t21.5 -117t46.5 -106t77 -82t117.5 -56t163.5 -19q79 0 142.5 15t108 40t77.5 63.5t52.5 80t31.5 95t16 103t4 109.5v871h99v-873q0 -62 -4 -113t-17 -114t-35.5 -112t-63 -97.5t-95 -81t-135.5 -52.5t-181 -20q-81 0 -149 12 t-118 32.5t-90.5 52t-67.5 65t-47 77.5t-31 83.5t-17.5 90t-8 89.5t-1.5 88z" />
<glyph unicode="V" horiz-adv-x="1171" d="M8 1434h111l467 -1336l467 1336h110l-512 -1434h-131z" />
<glyph unicode="W" horiz-adv-x="1732" d="M12 1434h111l326 -1305l358 1305h123l354 -1305l326 1305h110l-370 -1434h-127l-355 1317l-358 -1317h-127z" />
<glyph unicode="X" horiz-adv-x="1110" d="M8 0l479 733l-467 701h119l416 -625l416 625h119l-467 -701l479 -733h-127l-420 655l-420 -655h-127z" />
<glyph unicode="Y" horiz-adv-x="1187" d="M8 1434h121l465 -711l465 711h121l-537 -801v-633h-98v633z" />
<glyph unicode="Z" d="M53 0v98l912 1250h-861v86h965v-91l-907 -1257h944v-86h-1053z" />
<glyph unicode="[" horiz-adv-x="702" d="M217 -379v1813h377v-72h-279v-1669h279v-72h-377z" />
<glyph unicode="\" horiz-adv-x="806" d="M0 1434h76l731 -1813h-76z" />
<glyph unicode="]" horiz-adv-x="702" d="M109 -307h278v1669h-278v72h376v-1813h-376v72z" />
<glyph unicode="^" horiz-adv-x="765" d="M115 987l227 447h82l227 -447h-73l-195 385l-195 -385h-73z" />
<glyph unicode="_" horiz-adv-x="1024" d="M0 -317h1024v-62h-1024v62z" />
<glyph unicode="`" horiz-adv-x="544" d="M86 1434h123l143 -271h-71z" />
<glyph unicode="a" horiz-adv-x="1099" d="M94 274q0 45 10 83.5t26 66.5t42 51.5t50 39t59 28t61 19.5t62.5 12.5t57.5 7.5t52 5q4 0 6.5 0.5t5.5 0.5q176 17 198 21q63 12 80 48q15 30 15 111q0 49 -13 88.5t-32.5 64t-48 42.5t-52.5 27t-54 13.5t-45.5 5.5t-32.5 1q-303 0 -308 -258h-90q1 45 10 86t36 87 t69.5 79t115 55t167.5 22q96 0 166.5 -22t108.5 -54.5t60 -78.5q22 -48 28 -86q5 -33 5 -71v-13l-10 -570q0 -123 80 -123q18 0 39 7v-70q-35 -10 -68 -10q-44 0 -74 17t-44.5 46.5t-19.5 60.5q-4 22 -4 47q0 10 1 21q-44 -87 -134.5 -147t-236.5 -60q-51 0 -97 8t-92 28.5 t-79.5 53t-54.5 86.5t-21 123zM188 274q0 -103 68.5 -165t183.5 -62q52 0 101.5 12t98.5 41.5t85.5 74t59.5 114t24 157.5l2 129q-17 -14 -35 -22.5t-46.5 -14t-50.5 -8t-73.5 -7.5t-89.5 -9q-89 -11 -144.5 -25t-100 -40.5t-64 -68.5t-19.5 -106z" />
<glyph unicode="b" horiz-adv-x="1167" d="M162 0v1434h90v-568q45 95 136.5 155t223.5 60q118 0 207 -45t140 -123.5t75.5 -173t24.5 -204.5q0 -91 -14.5 -172.5t-49 -156.5t-85 -129t-128 -86t-174.5 -32q-254 0 -352 207h-4v-166h-90zM248 514q0 -102 21 -185t56 -137.5t83 -91.5t98.5 -53t105.5 -16 q33 0 64 5.5t67.5 20t67 38t59.5 63t49.5 91t33 125.5t12.5 163q0 215 -91.5 344t-257.5 129q-172 0 -270 -133.5t-98 -362.5z" />
<glyph unicode="c" horiz-adv-x="1079" d="M109 537q0 91 16 170.5t52 149t90.5 118.5t134.5 77.5t180 28.5q86 0 155 -22t112.5 -56t73.5 -80.5t43.5 -90t18.5 -89.5h-88q-15 114 -95.5 190.5t-219.5 76.5q-180 0 -279.5 -125.5t-99.5 -341.5q0 -118 23.5 -209.5t61 -147.5t89 -92t101.5 -49.5t104 -13.5 q76 0 135.5 26.5t92.5 62.5t56 86t31 83t12 67h88q-9 -77 -30.5 -139.5t-48.5 -103.5t-64 -70.5t-70 -45.5t-74 -25t-68.5 -11t-59.5 -2q-96 0 -174.5 28.5t-133.5 79.5t-92.5 123.5t-55 159t-17.5 187.5z" />
<glyph unicode="d" horiz-adv-x="1163" d="M109 535q0 141 35 248.5t97 171t140 95t170 31.5q119 0 215 -56t145 -159v568h90v-1434h-90v166h-4q-7 -19 -17.5 -38t-39 -52t-64.5 -57t-97 -42t-134 -18q-88 0 -159.5 26.5t-116.5 67t-79 98t-50.5 109t-26.5 112t-12 95t-2 68.5zM203 537q0 -100 15.5 -180.5 t39.5 -132t58 -90t65 -57.5t67.5 -30t58 -13.5t44.5 -2.5q55 0 105.5 16t98.5 53t83 91.5t56 137.5t21 185q0 229 -98 362.5t-270 133.5q-92 0 -161.5 -42t-108 -112.5t-56.5 -150.5t-18 -168z" />
<glyph unicode="e" horiz-adv-x="1142" d="M109 535q0 23 1 44.5t6 62.5t13.5 77.5t26 82.5t40.5 83.5t60 75t83 63t110 41.5t139 16q40 0 75.5 -4t83 -18t86 -37.5t78 -67t66 -102t42.5 -146.5q15 -83 15 -183v-13h-831q1 -50 7.5 -98.5t22 -105t44.5 -104t70 -87t104 -62t141 -22.5q143 0 230.5 76.5t109.5 193.5 h90q-8 -45 -24.5 -87.5t-50.5 -90t-79.5 -83t-118 -58.5t-161.5 -23q-30 0 -54.5 1.5t-77 13t-94 31.5t-91.5 63t-83 102t-56 153t-23 212zM203 582h735q0 53 -7.5 105t-31.5 112.5t-61.5 105.5t-103.5 75t-152 30q-88 0 -157 -30.5t-109 -76t-66.5 -106t-36 -112 t-10.5 -103.5z" />
<glyph unicode="f" horiz-adv-x="526" d="M12 969v71h193v156q0 73 16.5 122.5t47.5 74.5t66.5 35t82.5 10q30 0 96 -4v-72q-24 1 -45 2t-32 1.5t-19 0.5q-123 0 -123 -164v-162h219v-71h-219v-969h-90v969h-193z" />
<glyph unicode="g" horiz-adv-x="1157" d="M109 532q0 261 114.5 405t315.5 144q144 0 232.5 -59.5t129.5 -149.5h4v168h90v-962q0 -31 -0.5 -53t-5 -62t-12 -70t-23 -69t-37 -68t-55 -59t-76 -49t-101 -31t-128.5 -12q-336 0 -397 256h102q22 -81 96.5 -133t206.5 -52q22 0 44 2t57.5 11t65.5 24t63 44.5 t56.5 69.5t38.5 101.5t15 137.5v122q-39 -98 -130.5 -151t-211.5 -53q-91 0 -164 26.5t-119.5 66t-80.5 96t-50.5 106t-26.5 107t-11.5 87.5t-1.5 59zM203 535q0 -109 22.5 -195t59 -138.5t86 -86.5t99 -47t103.5 -13q43 0 81 8.5t77 28t70 55t56 85t38.5 123.5t13.5 165 q0 240 -92 365t-270 125q-68 0 -123 -21.5t-90 -53.5t-61 -79t-39 -89t-20.5 -92t-9 -79.5t-1.5 -60.5z" />
<glyph unicode="h" horiz-adv-x="1105" d="M162 0v1434h90v-551q30 53 73.5 92.5t82.5 59t84 31t70 13.5t48 2q334 0 334 -364v-717h-90v662q0 39 -0.5 61t-5.5 63.5t-13.5 67.5t-27 59t-44 51.5t-66 32t-91.5 13.5q-52 0 -101 -13t-96 -44t-81 -77t-55 -116.5t-21 -157.5v-602h-90z" />
<glyph unicode="i" horiz-adv-x="413" d="M156 1284v150h102v-150h-102zM162 0v1040h90v-1040h-90z" />
<glyph unicode="j" horiz-adv-x="413" d="M-14 -303q10 -2 28 -2q38 0 61 6t45 24t32 57t10 101v1157h90v-1169q0 -131 -44.5 -192.5t-158.5 -61.5q-31 0 -63 4v76zM156 1284v150h102v-150h-102z" />
<glyph unicode="k" horiz-adv-x="980" d="M162 0v1434h90v-942l582 548h112l-416 -395l451 -645h-104l-412 586l-213 -205v-381h-90z" />
<glyph unicode="l" horiz-adv-x="413" d="M162 0v1434h90v-1434h-90z" />
<glyph unicode="m" horiz-adv-x="1687" d="M162 0v1040h90v-151q17 35 42 66t63 61t94 47.5t122 17.5q108 0 189 -55.5t104 -153.5q18 38 44.5 71.5t67 66t101 52t133.5 19.5q314 0 314 -385v-696h-90v686q0 22 -0.5 39t-5 53.5t-12.5 63.5t-25 60.5t-40 55.5t-60 37t-83 15q-45 0 -88 -11t-86 -37.5t-75 -66.5 t-52 -103.5t-20 -142.5v-649h-90v686q0 20 -0.5 36t-5 51.5t-12.5 63.5t-25.5 62t-41 57t-61 38.5t-84.5 15.5q-132 0 -224.5 -107t-92.5 -268v-635h-90z" />
<glyph unicode="n" horiz-adv-x="1105" d="M162 0v1040h90v-157q30 53 73.5 92.5t82.5 59t84 31t70 13.5t48 2q334 0 334 -364v-717h-90v662q0 39 -0.5 61t-5.5 63.5t-13.5 67.5t-27 59t-44 51.5t-66 32t-91.5 13.5q-52 0 -101 -13t-96 -44t-81 -77t-55 -116.5t-21 -157.5v-602h-90z" />
<glyph unicode="o" horiz-adv-x="1175" d="M109 520q0 95 16.5 177.5t53.5 153.5t92 121.5t136 79.5t181 29t181 -29t136 -79.5t92 -121.5t53.5 -153.5t16.5 -177.5t-16.5 -177.5t-53.5 -153.5t-92 -121.5t-136 -79.5t-181 -29t-181 29t-136 79.5t-92 121.5t-53.5 153.5t-16.5 177.5zM203 520q0 -228 97.5 -358.5 t287.5 -130.5t287.5 130.5t97.5 358.5t-97.5 359t-287.5 131t-287.5 -131t-97.5 -359z" />
<glyph unicode="p" horiz-adv-x="1167" d="M162 -379v1419h90v-166h4q47 102 144 154.5t212 52.5q118 0 206.5 -44t140 -121.5t76 -172.5t24.5 -208q0 -90 -14.5 -171t-49 -156t-85 -129.5t-128.5 -87t-174 -32.5q-253 0 -356 215v-553h-90zM248 514q0 -102 21 -185t56 -137.5t83 -91.5t98.5 -53t105.5 -16 q33 0 64 5.5t67.5 20t67 38t59.5 63t49.5 91t33 125.5t12.5 163q0 215 -91.5 344t-257.5 129q-172 0 -270 -133.5t-98 -362.5z" />
<glyph unicode="q" horiz-adv-x="1167" d="M162 535q0 89 15.5 168t50.5 149t86 120.5t126 79.5t168 29q116 0 213 -52.5t144 -154.5h4v166h90v-1419h-90v553q-45 -95 -137 -155t-224 -60q-90 0 -162.5 29t-118 71.5t-79 103.5t-49.5 112.5t-25 112.5t-10.5 90t-1.5 57zM256 537q0 -123 23.5 -217t59 -147.5 t85 -86.5t93 -44t91.5 -11q55 0 106 16t98.5 53t83 91.5t56.5 137.5t21 185q0 229 -98.5 362.5t-270.5 133.5q-166 0 -257 -129t-91 -344z" />
<glyph unicode="r" horiz-adv-x="651" d="M162 0v1040h90v-215h4q39 102 132 169t216 67h47v-92h-45q-33 -1 -61.5 -5t-66 -16.5t-68 -32.5t-61 -56t-51 -83.5t-33.5 -119t-13 -158.5v-498h-90z" />
<glyph unicode="s" horiz-adv-x="962" d="M82 297h92q0 -112 82.5 -189t232.5 -77q83 0 144 22t92.5 58.5t46 75t14.5 79.5q0 40 -14 72t-34 52t-56 37.5t-66 27t-79 22.5q-48 13 -113 27q-60 14 -103 28.5t-84.5 38.5t-67 54t-41 75t-15.5 103q0 28 5 56.5t26 71t56.5 73.5t105 54t163.5 23q90 0 159.5 -21.5 t109 -53.5t65.5 -76t35 -80t12 -76h-92q-1 30 -8.5 59.5t-27.5 62.5t-50.5 57.5t-81.5 40.5t-117 16q-137 0 -201.5 -59.5t-64.5 -151.5q0 -45 13.5 -78t35.5 -54.5t60 -37.5t77 -27t96 -25q23 -5 35 -8q52 -12 85 -21t75 -23.5t67.5 -29t53 -36t42.5 -47t24.5 -60 t9.5 -76.5q0 -144 -99.5 -230.5t-304.5 -86.5q-98 0 -175.5 28t-124.5 76t-71 107.5t-24 126.5z" />
<glyph unicode="t" horiz-adv-x="561" d="M12 969v71h207v312h90v-312h226v-71h-226v-779q0 -31 0.5 -46t5.5 -38.5t14 -34.5t27 -19.5t45 -8.5q61 0 134 29v-72q-81 -29 -146 -29q-46 0 -79 12.5t-50.5 30t-27 48t-11.5 55.5t-2 63v789h-207z" />
<glyph unicode="u" horiz-adv-x="1105" d="M162 324v716h90v-661q0 -39 0.5 -61t5.5 -63.5t13.5 -67.5t27 -59t44 -51.5t66 -32t91.5 -13.5q53 0 101.5 13t95.5 44t81 76.5t55 116t21 157.5v602h90v-1040h-90v154h-4q-50 -90 -143.5 -142.5t-210.5 -52.5q-334 0 -334 365z" />
<glyph unicode="v" horiz-adv-x="884" d="M0 1040h102l340 -944l340 944h103l-389 -1040h-107z" />
<glyph unicode="w" horiz-adv-x="1376" d="M12 1040h94l267 -931l262 931h106l263 -931l266 931h94l-301 -1040h-115l-260 934l-260 -934h-115z" />
<glyph unicode="x" horiz-adv-x="888" d="M0 0l387 543l-352 497h110l299 -432l299 432h109l-350 -497l387 -543h-117l-328 483l-327 -483h-117z" />
<glyph unicode="y" horiz-adv-x="915" d="M27 1040h108l361 -934l327 934h92l-438 -1208q-2 -7 -11 -32t-13 -34t-14 -32t-18 -33t-21.5 -27t-28 -25.5t-34 -18t-43.5 -13.5t-52 -4q-36 0 -80 8v76q35 -6 71 -6q76 0 107 36.5t70 153.5l39 117z" />
<glyph unicode="z" horiz-adv-x="899" d="M53 0v63l674 906h-629v71h721v-82l-651 -886h678v-72h-793z" />
<glyph unicode="{" horiz-adv-x="749" d="M154 483v86q86 8 134 86.5t48 214.5q0 37 -4 111t-4 109q0 19 0.5 33.5t6.5 52.5t17 67t34.5 66.5t56 62.5t85.5 43t119 19v-72q-29 -3 -57.5 -11t-59 -25.5t-53 -42.5t-37 -64.5t-14.5 -88.5q0 -25 4 -84.5t4 -140.5q0 -68 -6.5 -118.5t-25.5 -104t-60.5 -92.5 t-103.5 -62v-4q62 -23 103.5 -62t60.5 -92.5t25.5 -104t6.5 -118.5q0 -81 -4 -140.5t-4 -84.5q0 -49 14.5 -88.5t37 -64t53 -42t59 -25.5t57.5 -11v-72q-66 1 -119 19t-85.5 43t-56 62.5t-34.5 66.5t-17 67t-6.5 52.5t-0.5 33.5q0 35 4 109t4 110q0 136 -48 214.5t-134 86.5 z" />
<glyph unicode="|" horiz-adv-x="921" d="M426 -459v2157h70v-2157h-70z" />
<glyph unicode="}" horiz-adv-x="749" d="M102 -309q38 3 73.5 16t70.5 38t56.5 71t21.5 106q0 25 -4.5 84.5t-4.5 140.5q0 68 7 118.5t26 104t60.5 92.5t103.5 62v4q-62 23 -103.5 62t-60.5 92.5t-26 104t-7 118.5q0 81 4.5 140.5t4.5 84.5q0 60 -21.5 106t-56.5 71.5t-70.5 38.5t-73.5 16v72q66 -1 119 -19 t85.5 -43t56.5 -62.5t35 -67t17 -67t6.5 -52.5t0.5 -33q0 -35 -4 -109t-4 -111q0 -136 48 -214.5t134 -86.5v-86q-86 -8 -134 -86.5t-48 -214.5q0 -36 4 -110t4 -109q0 -18 -0.5 -33t-6.5 -52.5t-17 -67t-35 -67t-56.5 -62.5t-85.5 -43t-119 -19v72z" />
<glyph unicode="~" horiz-adv-x="1187" d="M102 643q31 86 95.5 153.5t156.5 67.5q82 0 170 -47l211 -112q49 -27 111 -27q115 0 180 158l59 -25q-96 -221 -251 -221q-84 0 -170 47l-211 113q-47 26 -113 26q-59 0 -107 -45t-71 -113z" />
<glyph unicode="&#xa9;" horiz-adv-x="1638" d="M102 717q0 145 56 277.5t151.5 229t229 153.5t280.5 57q145 0 277.5 -56.5t229 -152.5t153.5 -229t57 -279t-57 -279t-153.5 -229t-229 -152.5t-277.5 -56.5q-147 0 -280.5 57t-229 153.5t-151.5 229t-56 277.5zM184 717q0 -178 83.5 -328.5t229.5 -239t322 -88.5 q170 0 316.5 88t232.5 239t86 329q0 180 -87 331t-233 237.5t-315 86.5q-174 0 -320 -87t-230.5 -237.5t-84.5 -330.5zM487 719q0 180 84.5 282.5t247.5 102.5q78 0 143.5 -28t107 -82.5t42.5 -125.5h-90q-7 71 -54.5 117.5t-148.5 46.5q-55 0 -98 -17.5t-67.5 -49 t-40.5 -63t-22 -72.5t-7.5 -63t-1.5 -48q0 -59 11.5 -106t28.5 -77t41.5 -52.5t46.5 -33.5t48 -17.5t41 -7.5t30 -1q46 0 82.5 14.5t57.5 34.5t35.5 47.5t20 47.5t7.5 40h90q-5 -28 -13 -55.5t-29.5 -66t-52 -66.5t-82.5 -48t-118 -20q-158 0 -249 97t-91 270z" />
<glyph unicode="&#xab;" horiz-adv-x="946" d="M127 518v90l305 266v-102l-248 -209l248 -209v-102zM487 518v90l306 266v-102l-248 -209l248 -209v-102z" />
<glyph unicode="&#xad;" horiz-adv-x="827" d="M143 471v143h541v-143h-541z" />
<glyph unicode="&#xae;" horiz-adv-x="1638" d="M102 717q0 145 57 278t153 229t229 153t278 57q147 0 280 -57t228.5 -153t152 -228.5t56.5 -278.5t-56.5 -278.5t-152 -228.5t-228.5 -153t-280 -57q-145 0 -278 57t-229 153t-153 229t-57 278zM184 717q0 -133 50.5 -254t136 -209t203 -140.5t245.5 -52.5q175 0 321 88 t230 238.5t84 329.5q0 180 -85 331t-231 237.5t-319 86.5q-170 0 -316 -87t-232.5 -238t-86.5 -330zM557 365v716h309q64 0 111.5 -16t72 -38t39 -53.5t18 -53.5t3.5 -46q0 -71 -37 -112.5t-84 -59.5v-4q33 -7 54 -22.5t31 -41t13 -45.5t5 -54q1 -24 2.5 -55.5l2 -42 t3 -26.5t7 -25t13.5 -21h-96q-16 19 -20 39.5t-6 92.5q-1 20 -1 31q-1 26 -2.5 40t-10 35t-24 31.5t-46 19t-74.5 8.5h-193v-297h-90zM647 733h197q73 0 122.5 35.5t49.5 105.5q0 136 -187 136h-182v-277z" />
<glyph unicode="&#xbb;" horiz-adv-x="946" d="M154 252v102l247 209l-247 209v102l305 -266v-90zM514 252v102l248 209l-248 209v102l305 -266v-90z" />
<glyph unicode="&#x2c6;" horiz-adv-x="880" d="M102 1163l244 271h189l243 -271h-86l-252 230l-252 -230h-86z" />
<glyph unicode="&#x2dc;" horiz-adv-x="921" d="M102 1245q5 26 14 52t26 54.5t39 49.5t55.5 35t72.5 14q50 0 79 -16t85 -66q2 -2 18 -16t20 -17t18.5 -14t22 -15t20 -10t23.5 -8t23 -2q28 0 51.5 14.5t38.5 38t25 47.5t15 48h71q-6 -34 -19 -66.5t-36 -66.5t-62.5 -55t-89.5 -21q-51 0 -83 17.5t-89 66.5 q-4 4 -17.5 16.5t-18.5 17t-17.5 14t-20 13.5t-18.5 9.5t-22 7.5t-23 2q-48 0 -84 -40t-45 -104h-72z" />
<glyph unicode="&#x401;" horiz-adv-x="1212" d="M188 0v1434h951v-86h-852v-560h784v-86h-784v-616h876v-86h-975zM434 1581v137h103v-137h-103zM819 1581v137h103v-137h-103z" />
<glyph unicode="&#x402;" horiz-adv-x="1470" d="M12 1348v86h996v-86h-488v-543q161 14 314 14q501 0 501 -411q0 -201 -115.5 -318t-316.5 -117q-86 0 -162 27v86q87 -27 154 -27t125 18.5t107 58t77.5 111.5t28.5 169q0 48 -7.5 87.5t-33.5 84t-69 75t-121 50.5t-183 20q-98 0 -299 -14v-719h-98v1348h-410z" />
<glyph unicode="&#x403;" horiz-adv-x="1077" d="M188 0v1434h877v-86h-778v-1348h-99zM555 1556l143 287h136l-197 -287h-82z" />
<glyph unicode="&#x404;" horiz-adv-x="1468" d="M135 692q0 177 40.5 320.5t120 247.5t203.5 160.5t285 56.5q125 0 224.5 -30t160.5 -76.5t102.5 -109.5t58.5 -121.5t20 -119.5h-103q-3 50 -17.5 98t-49 98.5t-85 88.5t-131 62t-180.5 24q-126 0 -224.5 -42t-155.5 -104.5t-95.5 -147t-53 -157.5t-17.5 -149h766v-86 h-766q3 -98 21.5 -189t59.5 -178.5t101.5 -152t153 -103.5t206.5 -39q82 0 152 18t117.5 46t85.5 67.5t60 77t38 79.5t22 70t9 54h102q-7 -64 -27 -127t-64.5 -132t-107.5 -120.5t-164 -85t-225 -33.5q-123 0 -224 34.5t-166 87t-114.5 126t-75 141t-41 142.5t-19 120 t-3.5 84z" />
<glyph unicode="&#x405;" horiz-adv-x="1298" d="M109 449h102q-1 -56 12.5 -109.5t47 -106.5t84 -92t132 -63.5t183.5 -24.5q79 0 143.5 14t107 35.5t74.5 52t49 60t27 63.5t13 57.5t3 47.5q0 60 -22.5 108t-54.5 78t-82.5 54t-90 35.5t-94.5 23.5q-34 7 -90.5 18.5t-90.5 18.5t-84 19t-81.5 22.5t-71.5 27.5t-64.5 35.5 t-51 44.5t-41 56t-24 68.5t-9.5 84.5q0 56 13 108.5t49 107.5t92 95.5t149 66.5t213 26q107 0 193 -26.5t140 -67.5t91 -96.5t53 -108.5t21 -109h-102q-3 36 -12 71t-36.5 83t-68.5 83t-115 60t-170 25q-190 0 -298.5 -85t-108.5 -223q0 -46 12.5 -83.5t31 -63.5t52.5 -48 t63.5 -35t79.5 -25.5t84 -19t93.5 -17t93.5 -17.5q49 -10 84 -19t84.5 -26t84.5 -36t73 -50t61.5 -67t39 -87.5t15.5 -111.5q0 -45 -7.5 -86.5t-26.5 -91t-57.5 -90t-93.5 -74.5t-141.5 -53t-195.5 -19q-108 0 -196 21t-148 58t-103.5 83.5t-67 102t-34.5 109t-10 108.5z " />
<glyph unicode="&#x406;" horiz-adv-x="475" d="M188 0v1434h99v-1434h-99z" />
<glyph unicode="&#x407;" horiz-adv-x="475" d="M68 1581v137h102v-137h-102zM188 0v1434h99v-1434h-99zM305 1581v137h103v-137h-103z" />
<glyph unicode="&#x408;" horiz-adv-x="1009" d="M61 379v65h99v-59q1 -23 3 -45.5t9.5 -58t19.5 -65.5t35.5 -63t54 -55.5t77.5 -37.5t104 -15q34 0 61.5 3.5t58.5 15t54 31t45.5 52.5t36.5 77.5t22.5 109.5t8.5 145v955h98v-955q0 -49 -2 -88t-10.5 -96t-23.5 -99.5t-44.5 -89.5t-69 -77t-101 -50t-138.5 -20 q-93 0 -165.5 27t-115 69.5t-70 100t-37.5 111.5t-10 112z" />
<glyph unicode="&#x409;" horiz-adv-x="2113" d="M0 0v86q16 -2 49 -2q45 0 83.5 13.5t67.5 43.5t52 61.5t39 86t28 97t19 114t11.5 118t6 128t2 125.5t0.5 127v8v428h789v-623h407q114 0 201.5 -25.5t138.5 -65t83.5 -95.5t43.5 -108t11 -111q0 -79 -18.5 -142.5t-47.5 -105t-71.5 -72t-82 -46.5t-87 -25.5t-79.5 -12 t-67 -2.5h-530v1348h-592v-330q0 -232 -12.5 -398.5t-40 -288.5t-73.5 -193.5t-110 -105.5t-153 -34q-45 0 -68 2zM1147 86h432q87 0 153 21.5t102.5 53t59 76t29 83t6.5 81.5q0 70 -21 127t-64 102t-116.5 70t-171.5 25h-409v-639z" />
<glyph unicode="&#x40a;" horiz-adv-x="2187" d="M188 0v1434h99v-631h835v631h99v-623h407q96 0 173 -17.5t127.5 -48.5t86.5 -69.5t55 -86t27 -91.5t8 -92q0 -79 -18.5 -142.5t-47.5 -105t-71 -72t-81.5 -46.5t-87 -25.5t-79.5 -12t-67 -2.5h-531v717h-835v-717h-99zM1221 86h432q87 0 153 21.5t102.5 53t59 76t29 83 t6.5 81.5q0 70 -21 127t-64 102t-116.5 70t-171.5 25h-409v-639z" />
<glyph unicode="&#x40b;" horiz-adv-x="1474" d="M12 1348v86h996v-86h-488v-543q215 14 311 14q86 0 154 -5.5t118.5 -17.5t87.5 -27t61.5 -39.5t39.5 -48t22.5 -60t10 -68t2.5 -78.5v-475h-98v483q0 67 -15 111t-42 72t-79.5 42.5t-113 19.5t-156.5 5q-89 0 -303 -14v-719h-98v1348h-410z" />
<glyph unicode="&#x40c;" horiz-adv-x="1193" d="M188 0v1434h99v-664l741 664h131l-745 -668l780 -766h-143l-764 754v-754h-99zM571 1556l144 287h135l-197 -287h-82z" />
<glyph unicode="&#x40e;" horiz-adv-x="1124" d="M27 1434h120l474 -981l397 981h106l-489 -1209q-30 -75 -63.5 -124.5t-73.5 -75.5t-80 -35.5t-94 -9.5q-70 0 -123 18v86q54 -18 116 -18q40 0 70.5 10t63 37t61.5 80.5t57 134.5zM324 1745h90q6 -79 62.5 -128.5t146.5 -49.5q89 0 145.5 49.5t62.5 128.5h91 q-10 -106 -89 -178t-210 -72t-210 72t-89 178z" />
<glyph unicode="&#x40f;" horiz-adv-x="1409" d="M188 0v1434h99v-1348h835v1348h99v-1434h-467v-379h-99v379h-467z" />
<glyph unicode="&#x410;" horiz-adv-x="1228" d="M6 0l547 1434h123l547 -1434h-109l-176 465h-647l-176 -465h-109zM322 551h585l-293 801z" />
<glyph unicode="&#x411;" horiz-adv-x="1327" d="M188 0v1434h951v-86h-852v-537h469q96 0 173 -17.5t127.5 -48.5t86.5 -69.5t55 -86t27 -91.5t8 -92q0 -79 -19.5 -142.5t-49.5 -105t-74 -72t-85 -46.5t-91 -25.5t-83.5 -12t-70.5 -2.5h-572zM287 86h473q103 0 177.5 25t115 70t59 99t18.5 121q0 45 -8.5 86t-33.5 86 t-65 77.5t-108 53.5t-157 21h-471v-639z" />
<glyph unicode="&#x412;" horiz-adv-x="1380" d="M188 0v1434h564q99 0 174.5 -22t120.5 -56t73.5 -82.5t38.5 -96t10 -100.5q0 -73 -21.5 -131t-58.5 -95t-77 -59.5t-84 -33.5v-4q132 -14 218.5 -111t86.5 -246q0 -51 -9.5 -97t-31 -92t-59.5 -82.5t-91.5 -65.5t-131 -44.5t-173.5 -15.5h-549zM287 86h452q391 0 391 311 q0 87 -28.5 147.5t-83.5 94.5t-124.5 48.5t-162.5 14.5h-444v-616zM287 788h442q82 0 144.5 18.5t99 47t59.5 69t31 79t8 81.5q0 53 -15 96t-37.5 70t-55 47t-60.5 29.5t-62.5 15t-52 6.5t-36.5 1h-465v-560z" />
<glyph unicode="&#x413;" horiz-adv-x="1077" d="M188 0v1434h877v-86h-778v-1348h-99z" />
<glyph unicode="&#x414;" horiz-adv-x="1441" d="M0 86h135q307 334 307 1073v275h766v-1348h207l-12 -410h-90v324h-1211v-324h-90zM254 86h856v1262h-569v-187q0 -199 -21 -365.5t-61 -295.5t-89.5 -227t-115.5 -187z" />
<glyph unicode="&#x415;" horiz-adv-x="1212" d="M188 0v1434h951v-86h-852v-560h784v-86h-784v-616h876v-86h-975z" />
<glyph unicode="&#x416;" horiz-adv-x="1716" d="M0 0l700 766l-688 668h117l680 -664v664h98v-664l680 664h117l-688 -668l700 -766h-125l-684 754v-754h-98v754l-684 -754h-125z" />
<glyph unicode="&#x417;" horiz-adv-x="1316" d="M109 408h98q2 -26 6.5 -51t18 -63t33.5 -70.5t55.5 -67t82 -58.5t116 -39.5t153.5 -15.5q189 0 298 93t109 253q0 64 -16.5 115.5t-42 85.5t-62 59.5t-71 38.5t-74 21t-65.5 10t-52 2h-178v86h170q42 0 82 5.5t88 23.5t83 47.5t59 82t24 121.5q0 39 -8.5 77t-34 80.5 t-65.5 73.5t-110 52t-161 21q-89 0 -160 -20.5t-114 -52t-72 -74.5t-41 -83t-14 -82h-99q3 52 16.5 101t49 105t88 97t143 68t205.5 27q233 0 354 -111.5t121 -284.5q0 -69 -22.5 -125t-60.5 -92t-79 -58t-86 -32v-4q134 -23 221 -122t87 -265q0 -32 -4.5 -65.5t-18.5 -77 t-36.5 -81.5t-62 -76t-90.5 -65t-127 -44t-167 -17q-134 0 -237 31t-162.5 77.5t-98.5 110t-52.5 118.5t-16.5 114z" />
<glyph unicode="&#x418;" horiz-adv-x="1458" d="M188 0v1434h99v-1299l876 1299h107v-1434h-99v1305l-876 -1305h-107z" />
<glyph unicode="&#x419;" horiz-adv-x="1458" d="M188 0v1434h99v-1299l876 1299h107v-1434h-99v1305l-876 -1305h-107zM430 1745h90q6 -79 62.5 -128.5t146.5 -49.5t146.5 49.5t62.5 128.5h90q-10 -106 -89 -178t-210 -72t-210 72t-89 178z" />
<glyph unicode="&#x41a;" horiz-adv-x="1193" d="M188 0v1434h99v-664l741 664h131l-745 -668l780 -766h-143l-764 754v-754h-99z" />
<glyph unicode="&#x41b;" horiz-adv-x="1335" d="M0 0v86q16 -2 49 -2q45 0 83.5 13.5t67.5 43.5t52 61.5t39 86t28 97t19 114t11.5 118t6 128t2 125.5t0.5 127v8v428h789v-1434h-98v1348h-592v-330q0 -232 -12.5 -398.5t-40 -288.5t-73.5 -193.5t-110 -105.5t-153 -34q-45 0 -68 2z" />
<glyph unicode="&#x41c;" horiz-adv-x="1728" d="M188 0v1434h150l526 -1305l527 1305h149v-1434h-98v1243l4 55h-4l-529 -1298h-98l-528 1298h-4l4 -55v-1243h-99z" />
<glyph unicode="&#x41d;" horiz-adv-x="1409" d="M188 0v1434h99v-631h835v631h99v-1434h-99v717h-835v-717h-99z" />
<glyph unicode="&#x41e;" horiz-adv-x="1593" d="M135 717q0 356 174 558t488 202q313 0 487 -202.5t174 -557.5t-174 -557.5t-487 -202.5q-314 0 -488 202t-174 558zM238 717q0 -122 21.5 -224t60.5 -174.5t90.5 -126.5t115 -86t131 -47.5t140.5 -15.5t140.5 15.5t131 47.5t115 86t90.5 126.5t60.5 174.5t21.5 224 t-21.5 224t-60.5 174.5t-90.5 126.5t-115 86t-131 47.5t-140.5 15.5t-140.5 -15.5t-131 -47.5t-115 -86t-90.5 -126.5t-60.5 -174.5t-21.5 -224z" />
<glyph unicode="&#x41f;" horiz-adv-x="1409" d="M188 0v1434h1033v-1434h-99v1348h-835v-1348h-99z" />
<glyph unicode="&#x420;" horiz-adv-x="1257" d="M188 0v1434h525q463 0 463 -390q0 -66 -14 -122t-35.5 -95.5t-54.5 -71.5t-64.5 -52t-73.5 -34.5t-73 -21.5t-70 -11t-58 -4.5t-45 -0.5h-401v-631h-99zM287 717h401q385 0 385 325q0 306 -385 306h-401v-631z" />
<glyph unicode="&#x421;" horiz-adv-x="1468" d="M135 692q0 177 40.5 320.5t120 247.5t203.5 160.5t285 56.5q125 0 224.5 -30t160.5 -76.5t102.5 -109.5t58.5 -121.5t20 -119.5h-103q-4 73 -33.5 138t-84.5 118t-144 84t-201 31q-261 0 -403.5 -185.5t-142.5 -509.5q0 -193 63.5 -340t187 -230t291.5 -83q96 0 176.5 26 t133.5 67t91.5 96.5t57.5 110.5t25 112h102q-7 -64 -27 -127t-64.5 -132t-107.5 -120.5t-164 -85t-225 -33.5q-123 0 -224 34.5t-166 87t-114.5 126t-75 141t-41 142.5t-19 120t-3.5 84z" />
<glyph unicode="&#x422;" horiz-adv-x="1097" d="M12 1348v86h1073v-86h-487v-1348h-98v1348h-488z" />
<glyph unicode="&#x423;" horiz-adv-x="1124" d="M27 1434h120l474 -981l397 981h106l-489 -1209q-30 -75 -63.5 -124.5t-73.5 -75.5t-80 -35.5t-94 -9.5q-70 0 -123 18v86q54 -18 116 -18q40 0 70.5 10t63 37t61.5 80.5t57 134.5z" />
<glyph unicode="&#x424;" horiz-adv-x="1744" d="M98 731q0 56 7 107.5t25.5 107t48 101.5t77.5 88t110.5 71.5t150.5 46.5t194 17h112v205h99v-205h112q106 0 194 -17t150.5 -46.5t110.5 -71.5t77.5 -88t48 -101.5t25.5 -107t7 -107.5q0 -102 -23.5 -186t-61 -139.5t-91 -97.5t-105.5 -65t-113 -37t-105 -18t-89 -4h-137 v-225h-99v225h-137q-135 0 -240 33.5t-169 86.5t-105.5 127t-57.5 147t-16 153zM201 729q0 -47 6 -91t21.5 -91t39 -86.5t62 -75.5t88 -61t118.5 -39.5t152 -14.5h135v914h-100q-100 0 -181.5 -17.5t-134.5 -45t-92.5 -68.5t-61 -80t-34 -87t-15.5 -82.5t-3 -74.5zM922 270 h135q83 0 152 14.5t118.5 39.5t88 61t62 75.5t39 86.5t21.5 91t6 91q0 40 -3 74.5t-15.5 82.5t-34 87t-61 80t-92.5 68.5t-134.5 45t-181.5 17.5h-100v-914z" />
<glyph unicode="&#x425;" horiz-adv-x="1110" d="M8 0l479 733l-467 701h119l416 -625l416 625h119l-467 -701l479 -733h-127l-420 655l-420 -655h-127z" />
<glyph unicode="&#x426;" horiz-adv-x="1454" d="M188 0v1434h99v-1348h835v1348h99v-1348h206l-12 -410h-90v324h-1137z" />
<glyph unicode="&#x427;" horiz-adv-x="1241" d="M147 977v457h99v-465q0 -50 8.5 -87.5t22 -64t41 -44.5t55.5 -29t75.5 -16.5t91 -7t111.5 -1.5q72 0 303 14v701h99v-1434h-99v647q-215 -14 -311 -14q-117 0 -194.5 8.5t-139.5 30t-95 61t-50 98.5t-17 146z" />
<glyph unicode="&#x428;" horiz-adv-x="2097" d="M188 0v1434h99v-1348h712v1348h99v-1348h712v1348h99v-1434h-1721z" />
<glyph unicode="&#x429;" horiz-adv-x="2142" d="M188 0v1434h99v-1348h712v1348h99v-1348h712v1348h99v-1348h207l-13 -410h-90v324h-1825z" />
<glyph unicode="&#x42a;" horiz-adv-x="1400" d="M8 1348v86h426v-623h408q96 0 173 -17.5t127.5 -48.5t86.5 -69.5t55 -86t27 -91.5t8 -92q0 -79 -18.5 -142.5t-47.5 -105t-71.5 -72t-82 -46.5t-87 -25.5t-79.5 -12t-67 -2.5h-530v1348h-328zM434 86h432q87 0 153 21.5t102.5 53t59 76t29.5 83t7 81.5q0 70 -21 127 t-64 102t-116.5 70t-171.5 25h-410v-639z" />
<glyph unicode="&#x42b;" horiz-adv-x="1650" d="M188 0v1434h99v-623h407q96 0 173 -17.5t127.5 -48.5t86.5 -69.5t55 -86t27 -91.5t8 -92q0 -79 -18.5 -142.5t-47.5 -105t-71 -72t-81.5 -46.5t-87 -25.5t-79.5 -12t-67 -2.5h-531zM287 86h432q87 0 153 21.5t102.5 53t59 76t29 83t6.5 81.5q0 70 -21 127t-64 102 t-116.5 70t-171.5 25h-409v-639zM1364 0v1434h98v-1434h-98z" />
<glyph unicode="&#x42c;" horiz-adv-x="1253" d="M188 0v1434h99v-623h407q96 0 173 -17.5t127.5 -48.5t86.5 -69.5t55 -86t27 -91.5t8 -92q0 -79 -18.5 -142.5t-47.5 -105t-71 -72t-81.5 -46.5t-87 -25.5t-79.5 -12t-67 -2.5h-531zM287 86h432q87 0 153 21.5t102.5 53t59 76t29 83t6.5 81.5q0 70 -21 127t-64 102 t-116.5 70t-171.5 25h-409v-639z" />
<glyph unicode="&#x42d;" horiz-adv-x="1468" d="M102 455h103q5 -55 22 -110.5t54.5 -113t90 -101t134.5 -71.5t182 -28q120 0 216.5 42.5t157 110t100 158t55 180.5t14.5 183h-766v86h766q-1 29 -4 58t-10.5 74.5t-19 87t-32 90t-46.5 89t-65.5 79.5t-87 66t-112 43.5t-139.5 16.5q-103 0 -186 -24t-135 -61.5 t-88 -88.5t-52 -100t-21 -101h-102q5 63 22.5 121t59.5 122t103.5 110.5t165 77t235.5 30.5q96 0 177.5 -21.5t140 -55.5t106 -84.5t78 -102t53 -114t34 -113t18 -108t8 -90t1.5 -67.5q0 -124 -21.5 -235.5t-71 -212t-122.5 -173.5t-183 -116t-247 -43q-124 0 -224.5 34.5 t-163.5 87.5t-107.5 123t-64.5 135t-26 130z" />
<glyph unicode="&#x42e;" horiz-adv-x="1988" d="M188 0v1434h99v-633h245q3 47 10 96t27 118t49.5 130t81 123.5t117 107t162.5 73t213 28.5q313 0 487 -202.5t174 -557.5t-174 -557.5t-487 -202.5q-116 0 -213 28t-164 74.5t-119 111t-83 132.5t-50.5 144t-26 140.5t-6.5 127.5h-243v-715h-99zM633 717 q0 -122 21.5 -224t60.5 -174.5t90.5 -126.5t115 -86t131 -47.5t140.5 -15.5t140.5 15.5t131 47.5t115 86t90.5 126.5t60.5 174.5t21.5 224t-21.5 224t-60.5 174.5t-90.5 126.5t-115 86t-131 47.5t-140.5 15.5t-140.5 -15.5t-131 -47.5t-115 -86t-90.5 -126.5t-60.5 -174.5 t-21.5 -224z" />
<glyph unicode="&#x42f;" horiz-adv-x="1363" d="M147 0l373 625q-49 5 -95.5 18t-98.5 42.5t-90.5 71.5t-63.5 110.5t-25 154.5q0 105 37.5 185t104 129t152.5 73.5t190 24.5h545v-1434h-99v616h-454l-363 -616h-113zM250 1026q0 -324 389 -324h438v646h-456q-88 0 -156 -22t-107.5 -55.5t-65 -78.5t-34 -85t-8.5 -81z " />
<glyph unicode="&#x430;" horiz-adv-x="1099" d="M94 274q0 45 10 83.5t26 66.5t42 51.5t50 39t59 28t61 19.5t62.5 12.5t57.5 7.5t52 5q4 0 6.5 0.5t5.5 0.5q176 17 198 21q63 12 80 48q15 30 15 111q0 49 -13 88.5t-32.5 64t-48 42.5t-52.5 27t-54 13.5t-45.5 5.5t-32.5 1q-303 0 -308 -258h-90q1 45 10 86t36 87 t69.5 79t115 55t167.5 22q96 0 166.5 -22t108.5 -54.5t60 -79t28 -85t5 -84.5l-10 -570q0 -123 80 -123q18 0 39 7v-70q-35 -10 -68 -10q-44 0 -74 17t-44.5 46.5t-19.5 60.5t-3 68q-44 -87 -134.5 -147t-236.5 -60q-51 0 -97 8t-92 28.5t-79.5 53t-54.5 86.5t-21 123z M188 274q0 -103 68.5 -165t183.5 -62q52 0 101.5 12t98.5 41.5t85.5 74t59.5 114t24 157.5l2 129q-17 -14 -35 -22.5t-46.5 -14t-50.5 -8t-73.5 -7.5t-89.5 -9q-89 -11 -144.5 -25t-100 -40.5t-64 -68.5t-19.5 -106z" />
<glyph unicode="&#x431;" horiz-adv-x="1210" d="M139 580q0 173 20.5 303.5t55.5 214.5t91 140.5t115.5 85t139.5 44.5q51 10 113.5 17t102.5 11t79 12.5t61.5 27t30.5 49.5h90q-3 -50 -26 -84t-56.5 -51.5t-84.5 -28.5t-97 -15t-106.5 -11.5t-102.5 -16.5q-68 -16 -121.5 -45t-101 -80.5t-76 -136t-35.5 -197.5h5 q7 22 18 44.5t42 61.5t71 67.5t110 50.5t154 22q116 0 204 -37t137.5 -93t80 -133.5t40 -145t9.5 -142.5q0 -103 -17.5 -187t-46 -140.5t-70 -99.5t-83 -67t-91 -39t-89 -19.5t-82.5 -4.5q-47 0 -88 4.5t-92 20.5t-92 42t-82 73.5t-68.5 111.5t-44.5 159t-17 212zM233 522 q0 -28 2 -58t11 -81t23.5 -96t44 -94t68 -83.5t99.5 -57.5t135 -23q22 0 41.5 1.5t50 6.5t56.5 14.5t58 27.5t57 42.5t50 62t41.5 83.5t27 110t10.5 139q0 81 -11.5 149t-39 130t-70.5 105t-109.5 68t-152.5 25q-77 0 -139.5 -20.5t-102.5 -51.5t-69.5 -77t-44.5 -87 t-23.5 -91t-10.5 -80.5t-2 -63.5z" />
<glyph unicode="&#x432;" horiz-adv-x="1040" d="M162 0v1040h405q320 0 320 -260q0 -52 -17.5 -94t-46.5 -68t-55.5 -41t-54.5 -24v-4q63 -14 107.5 -44t66.5 -69t31.5 -75.5t9.5 -75.5q0 -56 -14.5 -101t-36 -74t-55 -50.5t-64.5 -32.5t-71 -17.5t-67 -8t-61 -1.5h-397zM252 72h305q81 0 139 20t86 53.5t40 67.5t12 72 q0 227 -281 227h-301v-440zM252 584h303q22 0 41.5 1.5t59.5 12t68 29.5t50.5 59t22.5 96q0 39 -11 69.5t-27 50t-40.5 33t-44 20t-45.5 10t-36.5 4t-25.5 0.5h-315v-385z" />
<glyph unicode="&#x433;" horiz-adv-x="825" d="M162 0v1040h651v-71h-561v-969h-90z" />
<glyph unicode="&#x434;" horiz-adv-x="1150" d="M8 72h117q53 75 88 162t60.5 252t25.5 391v163h653v-968h183l-7 -342h-84v270h-946v-270h-84zM221 72h641v897h-477v-170q0 -449 -164 -727z" />
<glyph unicode="&#x435;" horiz-adv-x="1142" d="M109 535q0 23 1 44.5t6 62.5t13.5 77.5t26 82.5t40.5 83.5t60 75t83 63t110 41.5t139 16q40 0 75.5 -4t83 -18t86 -37.5t78 -67t66 -102t42.5 -146.5t15 -196h-831q1 -50 7.5 -98.5t22 -105t44.5 -104t70 -87t104 -62t141 -22.5q143 0 230.5 76.5t109.5 193.5h90 q-8 -45 -24.5 -87.5t-50.5 -90t-79.5 -83t-118 -58.5t-161.5 -23q-30 0 -54.5 1.5t-77 13t-94 31.5t-91.5 63t-83 102t-56 153t-23 212zM203 582h735q0 53 -7.5 105t-31.5 112.5t-61.5 105.5t-103.5 75t-152 30q-88 0 -157 -30.5t-109 -76t-66.5 -106t-36 -112t-10.5 -103.5 z" />
<glyph unicode="&#x436;" horiz-adv-x="1298" d="M0 0l506 545l-475 495h110l463 -489v489h90v-489l463 489h111l-475 -495l505 -545h-114l-490 539v-539h-90v539l-489 -539h-115z" />
<glyph unicode="&#x437;" horiz-adv-x="997" d="M82 311h90q3 -119 89.5 -199.5t225.5 -80.5q39 0 76.5 5t82.5 21t77.5 42.5t55 73.5t22.5 110q0 124 -76 182.5t-199 58.5h-174v72h162q77 0 131.5 18.5t81.5 50.5t38 65.5t11 72.5q0 72 -42 120.5t-100.5 67.5t-129.5 19q-63 0 -112.5 -14.5t-79.5 -37t-50.5 -53.5 t-29 -59t-11.5 -58h-90q3 38 13 73t36.5 77t65.5 72t107 50.5t155 20.5q93 0 162.5 -22t105.5 -53t58 -73.5t27 -73t5 -62.5q0 -58 -21 -103.5t-54.5 -71.5t-60 -39t-52.5 -20v-4q100 -17 158.5 -95.5t58.5 -187.5q0 -45 -11.5 -87.5t-41 -85t-74.5 -74t-117.5 -51 t-163.5 -19.5q-112 0 -195 34.5t-126.5 89.5t-63.5 112.5t-20 115.5z" />
<glyph unicode="&#x438;" horiz-adv-x="1138" d="M162 0v1040h90v-938l618 938h107v-1040h-90v938l-619 -938h-106z" />
<glyph unicode="&#x439;" horiz-adv-x="1138" d="M162 0v1040h90v-938l618 938h107v-1040h-90v938l-619 -938h-106zM287 1434h75q5 -73 58 -126t149 -53t149 53t58 126h76q-10 -98 -82 -169t-201 -71t-200.5 71t-81.5 169z" />
<glyph unicode="&#x43a;" horiz-adv-x="909" d="M162 0v1040h90v-481l510 481h115l-521 -481l553 -559h-123l-534 543v-543h-90z" />
<glyph unicode="&#x43b;" horiz-adv-x="1054" d="M12 0v72q14 -2 41 -2q53 0 91.5 19.5t62.5 66.5t38.5 93.5t21 133t8 151.5t1.5 179v327h617v-1040h-90v969h-441v-254q0 -281 -29.5 -435t-94 -218t-181.5 -64q-31 0 -45 2z" />
<glyph unicode="&#x43c;" horiz-adv-x="1400" d="M162 0v1040h127l411 -938l410 938h129v-1040h-90v870l4 56h-4l-404 -926h-92l-401 926h-4l4 -56v-870h-90z" />
<glyph unicode="&#x43d;" horiz-adv-x="1105" d="M162 0v1040h90v-452h602v452h90v-1040h-90v516h-602v-516h-90z" />
<glyph unicode="&#x43e;" horiz-adv-x="1175" d="M109 520q0 95 16.5 177.5t53.5 153.5t92 121.5t136 79.5t181 29t181 -29t136 -79.5t92 -121.5t53.5 -153.5t16.5 -177.5t-16.5 -177.5t-53.5 -153.5t-92 -121.5t-136 -79.5t-181 -29t-181 29t-136 79.5t-92 121.5t-53.5 153.5t-16.5 177.5zM203 520q0 -228 97.5 -358.5 t287.5 -130.5t287.5 130.5t97.5 358.5t-97.5 359t-287.5 131t-287.5 -131t-97.5 -359z" />
<glyph unicode="&#x43f;" horiz-adv-x="1112" d="M162 0v1040h788v-1040h-90v969h-608v-969h-90z" />
<glyph unicode="&#x440;" horiz-adv-x="1167" d="M162 -379v1419h90v-166h4q47 102 144 154.5t212 52.5q118 0 206.5 -44t140 -121.5t76 -172.5t24.5 -208q0 -90 -14.5 -171t-49 -156t-85 -129.5t-128.5 -87t-174 -32.5q-253 0 -356 215v-553h-90zM248 514q0 -102 21 -185t56 -137.5t83 -91.5t98.5 -53t105.5 -16 q33 0 64 5.5t67.5 20t67 38t59.5 63t49.5 91t33 125.5t12.5 163q0 215 -91.5 344t-257.5 129q-172 0 -270 -133.5t-98 -362.5z" />
<glyph unicode="&#x441;" horiz-adv-x="1079" d="M109 537q0 91 16 170.5t52 149t90.5 118.5t134.5 77.5t180 28.5q86 0 155 -22t112.5 -56t73.5 -80.5t43.5 -90t18.5 -89.5h-88q-15 114 -95.5 190.5t-219.5 76.5q-180 0 -279.5 -125.5t-99.5 -341.5q0 -118 23.5 -209.5t61 -147.5t89 -92t101.5 -49.5t104 -13.5 q76 0 135.5 26.5t92.5 62.5t56 86t31 83t12 67h88q-9 -77 -30.5 -139.5t-48.5 -103.5t-64 -70.5t-70 -45.5t-74 -25t-68.5 -11t-59.5 -2q-96 0 -174.5 28.5t-133.5 79.5t-92.5 123.5t-55 159t-17.5 187.5z" />
<glyph unicode="&#x442;" horiz-adv-x="843" d="M12 969v71h819v-71h-364v-969h-90v969h-365z" />
<glyph unicode="&#x443;" horiz-adv-x="915" d="M27 1040h108l361 -934l327 934h92l-438 -1208q-2 -7 -11 -32t-13 -34t-14 -32t-18 -33t-21.5 -27t-28 -25.5t-34 -18t-43.5 -13.5t-52 -4q-36 0 -80 8v76q35 -6 71 -6q76 0 107 36.5t70 153.5l39 117z" />
<glyph unicode="&#x444;" horiz-adv-x="1523" d="M109 524q0 101 22.5 184t59 139t88 97.5t105 65t116 37t113.5 17t104 1.5v369h90v-369q51 1 102.5 -3t113.5 -19t116 -39.5t105.5 -67t88.5 -98t59.5 -137t22.5 -179.5q0 -67 -10.5 -127t-35 -124t-70 -115t-110.5 -92.5t-162.5 -65t-219.5 -25.5v-352h-90v352 q-120 2 -217 25.5t-161.5 65t-111 93t-71.5 115t-36 124.5t-11 128zM203 524q0 -100 26 -182t83 -150.5t160 -107t245 -39.5v948q-124 2 -218 -26t-149 -73.5t-89.5 -110.5t-46 -127t-11.5 -132zM807 45q116 1 205.5 27t147 69.5t94.5 105.5t52 129t15 146q0 41 -4.5 80 t-18 88t-36 90t-62.5 81.5t-92 69t-129.5 45.5t-171.5 17v-948z" />
<glyph unicode="&#x445;" horiz-adv-x="888" d="M0 0l387 543l-352 497h110l299 -432l299 432h109l-350 -497l387 -543h-117l-328 483l-327 -483h-117z" />
<glyph unicode="&#x446;" horiz-adv-x="1146" d="M162 0v1040h90v-968h606v968h90v-968h182l-6 -342h-84v270h-878z" />
<glyph unicode="&#x447;" horiz-adv-x="970" d="M109 672v368h90v-364v-8q0 -27 0.5 -39.5t5.5 -32t14.5 -29t28 -21.5t46.5 -17t69.5 -9t97.5 -4q136 0 258 8v516h90v-1040h-90v453q-135 -9 -252 -9q-58 0 -105 3.5t-82.5 8.5t-62 15.5t-44.5 19.5t-30.5 26.5t-19 30.5t-10 37t-4 40.5t-0.5 46.5z" />
<glyph unicode="&#x448;" horiz-adv-x="1585" d="M162 0v1040h90v-968h496v968h90v-968h495v968h90v-1040h-1261z" />
<glyph unicode="&#x449;" horiz-adv-x="1622" d="M162 0v1040h90v-968h496v968h90v-968h495v968h90v-968h183l-7 -342h-83v270h-1354z" />
<glyph unicode="&#x44a;" horiz-adv-x="1130" d="M12 969v71h353v-426h284h15h42t49.5 -2.5t56.5 -7.5t56 -15.5t56 -25.5t48.5 -39t41 -54.5t25.5 -73t10 -93.5q0 -61 -17 -110t-42 -80t-62 -53.5t-68.5 -33.5t-70.5 -17.5t-59.5 -7.5t-43.5 -1h-412v969h-262zM365 72h305q37 0 70.5 4.5t74.5 19.5t70 40t49 70.5 t20 106.5q0 62 -21 107t-50 68t-73.5 36t-77 16t-75.5 3h-292v-471z" />
<glyph unicode="&#x44b;" horiz-adv-x="1323" d="M162 0v1040h90v-426h285h15h42t49 -2.5t56.5 -7.5t56.5 -15.5t56 -25.5t48 -39t40.5 -54.5t25.5 -73t10 -93.5q0 -61 -17 -110t-42 -80t-62 -53.5t-68.5 -33.5t-70.5 -17.5t-59.5 -7.5t-43.5 -1h-411zM252 72h305q37 0 71 4.5t75 19.5t70 40t49 70.5t20 106.5 q0 62 -21 107t-50 68t-73.5 36t-77 16t-75.5 3h-293v-471zM1071 0v1040h90v-1040h-90z" />
<glyph unicode="&#x44c;" horiz-adv-x="1017" d="M162 0v1040h90v-426h285h15h42t49 -2.5t56.5 -7.5t56.5 -15.5t56 -25.5t48 -39t40.5 -54.5t25.5 -73t10 -93.5q0 -61 -17 -110t-42 -80t-62 -53.5t-68.5 -33.5t-70.5 -17.5t-59.5 -7.5t-43.5 -1h-411zM252 72h305q37 0 71 4.5t75 19.5t70 40t49 70.5t20 106.5 q0 62 -21 107t-50 68t-73.5 36t-77 16t-75.5 3h-293v-471z" />
<glyph unicode="&#x44d;" horiz-adv-x="1064" d="M82 344h94q0 -56 20 -109.5t59.5 -100t107 -75t153.5 -28.5q65 0 118 18.5t88 48t62 71.5t41.5 84.5t23.5 92.5t11 88.5t2 79.5h-508v72h508q0 29 -2 58t-10.5 73t-23 82t-41 78t-62 68.5t-90 46.5t-121.5 18q-144 0 -231 -78t-93 -189h-92q3 64 30 123t76.5 108 t130.5 78t183 29q69 0 128 -14.5t101 -38t76 -58.5t55.5 -70t37.5 -79.5t23.5 -80t12 -78.5t5.5 -67t1 -54q0 -109 -16 -198t-42 -148.5t-64 -104t-75.5 -69t-84 -39t-82 -19t-76.5 -4.5q-95 0 -171 24.5t-123 63.5t-79 91t-45.5 102.5t-15.5 103.5z" />
<glyph unicode="&#x44e;" horiz-adv-x="1497" d="M162 0v1040h90v-454h180q2 31 6 63.5t17.5 83.5t33.5 95.5t56.5 92.5t84 82t120 56t159.5 22q100 0 181 -29t136 -79.5t92 -121.5t54 -153.5t17 -177.5t-17 -177.5t-54 -153.5t-92 -121.5t-136 -79.5t-181 -29q-91 0 -166 24t-123.5 61.5t-85 90.5t-56 102.5t-31 107 t-14.5 95t-3 74.5h-178v-514h-90zM524 520q0 -228 97.5 -358.5t287.5 -130.5t287.5 130.5t97.5 358.5t-97.5 359t-287.5 131t-287.5 -131t-97.5 -359z" />
<glyph unicode="&#x44f;" horiz-adv-x="1038" d="M82 0l272 442q-29 4 -57.5 12t-65.5 29t-64 51t-46 81t-19 116q0 62 17 115t52.5 97.5t99 70.5t149.5 26h457v-1040h-91v440h-342l-260 -440h-102zM197 733q0 -117 71.5 -169t212.5 -52h305v457h-319q-25 0 -43.5 -1t-48.5 -6t-52 -13.5t-47 -26.5t-41 -42t-27 -62 t-11 -85z" />
<glyph unicode="&#x451;" horiz-adv-x="1142" d="M109 535q0 23 1 44.5t6 62.5t13.5 77.5t26 82.5t40.5 83.5t60 75t83 63t110 41.5t139 16q32 0 62 -2.5t77 -14.5t86 -32.5t81.5 -61t72 -94.5t48.5 -138.5t19 -188.5v-39h-831q1 -50 7.5 -98.5t22 -105t44.5 -104t70 -87t104 -62t141 -22.5q143 0 230.5 76.5t109.5 193.5 h90q-8 -45 -24.5 -87.5t-50.5 -90t-79.5 -83t-118 -58.5t-161.5 -23q-30 0 -54.5 1.5t-77 13t-94 31.5t-91.5 63t-83 102t-56 153t-23 212zM203 582h735q0 53 -7.5 105t-31.5 112.5t-61.5 105.5t-103.5 75t-152 30q-88 0 -157 -30.5t-109 -76t-66.5 -106t-36 -112 t-10.5 -103.5zM307 1284v150h103v-150h-103zM733 1284v150h103v-150h-103z" />
<glyph unicode="&#x452;" horiz-adv-x="1105" d="M-2 1219v71h164v144h90v-144h450v-71h-450v-336q58 102 154.5 150t203.5 48q56 0 102.5 -12t81 -31t61.5 -52.5t45 -66t30.5 -82.5t19 -90.5t10 -102t4.5 -105.5t1 -111q0 -77 -0.5 -124t-4.5 -122.5t-11.5 -124t-22.5 -113.5t-36 -106t-53 -86t-73 -71t-97 -43t-124 -17 v72h26q63 0 111.5 25t80 59.5t53.5 99t32.5 115t16.5 139t6.5 138t0.5 143.5v12q0 121 -6.5 207.5t-23.5 161.5t-46.5 120.5t-76 71t-111.5 25.5q-52 0 -101 -13t-96 -44t-81 -77t-55 -116.5t-21 -157.5v-602h-90v1219h-164z" />
<glyph unicode="&#x453;" horiz-adv-x="825" d="M162 0v1040h651v-71h-561v-969h-90zM414 1163l143 271h123l-195 -271h-71z" />
<glyph unicode="&#x454;" horiz-adv-x="1079" d="M109 537q0 91 16 170.5t52 149t90.5 118.5t134.5 77.5t180 28.5q88 0 158 -22.5t112.5 -57t72.5 -81.5t42.5 -89.5t17.5 -87.5h-88q-15 114 -95.5 190.5t-219.5 76.5q-86 0 -154 -30t-108.5 -74.5t-67.5 -104t-37.5 -112t-11.5 -103.5h508v-72h-508q1 -27 3 -54.5 t11 -78.5t23.5 -94t43.5 -92.5t67.5 -83.5t98 -57t132.5 -23q76 0 135.5 26.5t92.5 62.5t56 86t31 83t12 67h88q-47 -397 -415 -397q-96 0 -174.5 28.5t-133.5 79.5t-92.5 123.5t-55 159t-17.5 187.5z" />
<glyph unicode="&#x455;" horiz-adv-x="962" d="M82 297h92q0 -112 82.5 -189t232.5 -77q83 0 144 22t92.5 58.5t46 75t14.5 79.5q0 40 -14 72t-34 52t-56 37.5t-66 27t-79 22.5q-48 13 -113 27q-60 14 -103 28.5t-84.5 38.5t-67 54t-41 75t-15.5 103q0 28 5 56.5t26 71t56.5 73.5t105 54t163.5 23q90 0 159.5 -21.5 t109 -53.5t65.5 -76t35 -80t12 -76h-92q-1 30 -8.5 59.5t-27.5 62.5t-50.5 57.5t-81.5 40.5t-117 16q-137 0 -201.5 -59.5t-64.5 -151.5q0 -45 13.5 -78t35.5 -54.5t60 -37.5t77 -27t96 -25q23 -5 35 -8q52 -12 85 -21t75 -23.5t67.5 -29t53 -36t42.5 -47t24.5 -60 t9.5 -76.5q0 -61 -17.5 -111t-44.5 -82t-65.5 -56t-73.5 -36.5t-74.5 -20t-64 -9.5t-47.5 -2q-106 0 -188 29t-129.5 78t-71 107.5t-23.5 123.5z" />
<glyph unicode="&#x456;" horiz-adv-x="413" d="M156 1284v150h102v-150h-102zM162 0v1040h90v-1040h-90z" />
<glyph unicode="&#x457;" horiz-adv-x="413" d="M59 1284v150h103v-150h-103zM162 0v1040h90v-1040h-90zM252 1284v150h102v-150h-102z" />
<glyph unicode="&#x458;" horiz-adv-x="413" d="M-14 -303q10 -2 28 -2q38 0 61 6t45 24t32 57t10 101v1157h90v-1169q0 -131 -44.5 -192.5t-158.5 -61.5q-31 0 -63 4v76zM156 1284v150h102v-150h-102z" />
<glyph unicode="&#x459;" horiz-adv-x="1658" d="M12 0v72q14 -2 41 -2q53 0 91.5 19.5t62.5 66.5t38.5 93.5t21 133t8 151.5t1.5 179v327h617v-426h285h15h42t49 -2.5t56.5 -7.5t56.5 -15.5t56 -25.5t48 -39t40.5 -54.5t25.5 -73t10 -93.5q0 -61 -17 -110t-42 -80t-62 -53.5t-68.5 -33.5t-70.5 -17.5t-59.5 -7.5 t-43.5 -1h-411v969h-441v-254q0 -281 -29.5 -435t-94 -218t-181.5 -64q-31 0 -45 2zM893 72h305q37 0 71 4.5t75 19.5t70 40t49 70.5t20 106.5q0 46 -11 82.5t-27.5 60t-43 40.5t-50.5 26t-57 14t-55.5 6t-52.5 1h-293v-471z" />
<glyph unicode="&#x45a;" horiz-adv-x="1710" d="M162 0v1040h90v-426h602v426h90v-426h285h15h42t49 -2.5t56.5 -7.5t56.5 -15.5t56 -25.5t48 -39t40.5 -54.5t25.5 -73t10 -93.5q0 -61 -17 -110t-42 -80t-61.5 -53.5t-68 -33.5t-70.5 -17.5t-59.5 -7.5t-43.5 -1h-412v543h-602v-543h-90zM944 72h305q37 0 71 4.5t75 19.5 t70 40t49 70.5t20 106.5q0 62 -21 107t-50 68t-73.5 36t-77 16t-75.5 3h-293v-471z" />
<glyph unicode="&#x45b;" horiz-adv-x="1105" d="M-2 1219v71h164v144h90v-144h450v-71h-450v-336q30 53 73.5 92.5t82.5 59t84 31t70 13.5t48 2q334 0 334 -364v-717h-90v662q0 39 -0.5 61t-5.5 63.5t-13.5 67.5t-27 59t-44 51.5t-66 32t-91.5 13.5q-52 0 -101 -13t-96 -44t-81 -77t-55 -116.5t-21 -157.5v-602h-90v1219 h-164z" />
<glyph unicode="&#x45c;" horiz-adv-x="909" d="M162 0v1040h90v-481l510 481h115l-521 -481l553 -559h-123l-534 543v-543h-90zM438 1163l144 271h123l-195 -271h-72z" />
<glyph unicode="&#x45e;" horiz-adv-x="915" d="M27 1040h108l361 -934l327 934h92l-438 -1208q-2 -7 -11 -32t-13 -34t-14 -32t-18 -33t-21.5 -27t-28 -25.5t-34 -18t-43.5 -13.5t-52 -4q-36 0 -80 8v76q35 -6 71 -6q76 0 107 36.5t70 153.5l39 117zM215 1434h76q5 -73 58 -126t149 -53t149 53t58 126h75 q-10 -98 -81.5 -169t-200.5 -71t-201 71t-82 169z" />
<glyph unicode="&#x45f;" horiz-adv-x="1110" d="M162 0v1040h90v-968h606v968h90v-1040h-348v-379h-90v379h-348z" />
<glyph unicode="&#x490;" horiz-adv-x="1077" d="M188 0v1434h775v323h90l12 -409h-778v-1348h-99z" />
<glyph unicode="&#x491;" horiz-adv-x="825" d="M162 0v1040h561v271h84l6 -342h-561v-969h-90z" />
<glyph unicode="&#x2000;" horiz-adv-x="921" />
<glyph unicode="&#x2001;" horiz-adv-x="1843" />
<glyph unicode="&#x2002;" horiz-adv-x="921" />
<glyph unicode="&#x2003;" horiz-adv-x="1843" />
<glyph unicode="&#x2004;" horiz-adv-x="614" />
<glyph unicode="&#x2005;" horiz-adv-x="460" />
<glyph unicode="&#x2006;" horiz-adv-x="307" />
<glyph unicode="&#x2007;" horiz-adv-x="307" />
<glyph unicode="&#x2008;" horiz-adv-x="230" />
<glyph unicode="&#x2009;" horiz-adv-x="368" />
<glyph unicode="&#x200a;" horiz-adv-x="102" />
<glyph unicode="&#x2010;" horiz-adv-x="827" d="M143 471v143h541v-143h-541z" />
<glyph unicode="&#x2011;" horiz-adv-x="827" d="M143 471v143h541v-143h-541z" />
<glyph unicode="&#x2012;" horiz-adv-x="827" d="M143 471v143h541v-143h-541z" />
<glyph unicode="&#x2013;" horiz-adv-x="1228" d="M102 512v61h1024v-61h-1024z" />
<glyph unicode="&#x2014;" horiz-adv-x="2015" d="M102 512v61h1811v-61h-1811z" />
<glyph unicode="&#x2018;" horiz-adv-x="563" d="M225 1040v232q0 33 3.5 58.5t14.5 55t35 51t60 31.5v-73q-55 -19 -55 -123v-80h55v-152h-113z" />
<glyph unicode="&#x2019;" horiz-adv-x="563" d="M225 1006v73q56 19 56 123v80h-56v152h113v-232q0 -33 -3.5 -58.5t-14.5 -55t-35 -51t-60 -31.5z" />
<glyph unicode="&#x201a;" horiz-adv-x="563" d="M225 0v152h113v-232q0 -33 -3.5 -58.5t-14.5 -55t-35 -51t-60 -31.5v73q56 19 56 123v80h-56z" />
<glyph unicode="&#x201c;" horiz-adv-x="655" d="M143 1040v232q0 33 3.5 58.5t14.5 55t35 51t60 31.5v-73q-55 -19 -55 -123v-80h55v-152h-113zM399 1040v232q0 33 3.5 58.5t14.5 55t35 51t60 31.5v-73q-55 -19 -55 -123v-80h55v-152h-113z" />
<glyph unicode="&#x201d;" horiz-adv-x="655" d="M143 1006v73q56 19 56 123v80h-56v152h113v-232q0 -33 -3.5 -58.5t-14.5 -55t-35 -51t-60 -31.5zM399 1006v73q56 19 56 123v80h-56v152h113v-232q0 -33 -3.5 -58.5t-14.5 -55t-35 -51t-60 -31.5z" />
<glyph unicode="&#x201e;" horiz-adv-x="655" d="M143 0v152h113v-232q0 -33 -3.5 -58.5t-14.5 -55t-35 -51t-60 -31.5v73q56 19 56 123v80h-56zM399 0v152h113v-232q0 -33 -3.5 -58.5t-14.5 -55t-35 -51t-60 -31.5v73q56 19 56 123v80h-56z" />
<glyph unicode="&#x2022;" horiz-adv-x="1024" d="M348 717q0 67 48 115.5t116 48.5t116 -48.5t48 -115.5t-48 -115.5t-116 -48.5t-116 48.5t-48 115.5z" />
<glyph unicode="&#x2026;" horiz-adv-x="1689" d="M225 0v152h113v-152h-113zM788 0v152h113v-152h-113zM1352 0v152h112v-152h-112z" />
<glyph unicode="&#x202f;" horiz-adv-x="368" />
<glyph unicode="&#x205f;" horiz-adv-x="460" />
<glyph unicode="&#x20ac;" d="M63 545l31 84h103q-4 46 -4 92q0 16 1 47t1 43h-132l31 84h109q14 125 50.5 227.5t97.5 183.5t156 126t216 45q112 0 201.5 -34t142.5 -83v-111q-129 133 -336 133q-99 0 -177.5 -39t-130 -108t-82 -154.5t-40.5 -185.5h662l-29 -84h-643q-2 -25 -2 -92q0 -17 1 -48 t1 -42h579l-28 -84h-541q28 -235 139 -364.5t293 -129.5q196 0 334 135v-112q-49 -48 -140 -81.5t-204 -33.5q-220 0 -352.5 147t-165.5 439h-142z" />
<glyph unicode="&#x2122;" horiz-adv-x="1525" d="M41 1362v72h553v-72h-232v-645h-90v645h-231zM754 717v717h114l199 -523l18 -71h5l18 71l195 523h114v-717h-90v477l6 92h-4l-213 -569h-61l-213 569h-4l6 -92v-477h-90z" />
<glyph unicode="&#xe000;" horiz-adv-x="1044" d="M0 0v1044h1044v-1044h-1044z" />
</font>
</defs>
</svg>
